<svg xmlns="http://www.w3.org/2000/svg" baseProfile="full" version="1.1" width="600px" height="300px" style="fill: none; width: 600px; height: 300px;"><path d="" style="stroke-width: 10; stroke-linecap: round; stroke-linejoin: round; stroke: rgb(255, 255, 255); fill: none;"/><path d="" style="stroke-width: 10; stroke-linecap: round; stroke-linejoin: round; stroke: rgb(119, 119, 119); fill: none;"/><path d="M300,90 A60,60 0 0,1 360,150 L360,150 A60,60 0 0,1 300,210 L300,210 A60,60 0 0,1 240,150 L240,150 A60,60 0 0,1 300,90 M360,150 L360,150 L450,150 A60,60 0 0,1 510,90 M450,150 A60,60 0 0,0 510,210 M240,150 L240,150 L150,150 A60,60 0 0,0 90,90 M150,150 A60,60 0 0,1 90,210 M300,90 L300,90 L300,60 M300,210 L300,210 L300,240 M300,210 A60,60 0 0,0 360,150 L360,150 A60,60 0 0,0 300,90 L300,90 A60,60 0 0,0 240,150 L240,150 A60,60 0 0,0 300,210 M360,150 L360,150 L450,150 A60,60 0 0,0 510,210 M450,150 A60,60 0 0,1 510,90 M240,150 L240,150 L150,150 A60,60 0 0,1 90,210 M150,150 A60,60 0 0,0 90,90 M300,210 L300,210 L300,240 M300,90 L300,90 L300,60 " style="stroke-width: 1; stroke-linecap: square; stroke-linejoin: bevel; stroke: rgb(0, 0, 0); fill: none;"/></svg>