<svg xmlns="http://www.w3.org/2000/svg" baseProfile="full" version="1.1" width="300px" height="300px" style="fill: none; width: 300px; height: 300px;"><path d="" style="stroke-width: 10; stroke-linecap: round; stroke-linejoin: round; stroke: rgb(255, 255, 255); fill: none;"/><path d="" style="stroke-width: 10; stroke-linecap: round; stroke-linejoin: round; stroke: rgb(119, 119, 119); fill: none;"/><path d="M150,240 L150,240 L150,60 M60,120 A45,45 0 0,1 105,75 L105,75 L195,75 A45,45 0 0,1 240,120 L240,120 A45,45 0 0,1 195,165 L195,165 L105,165 A45,45 0 0,1 60,120 M195,165 L195,165 L195,165 Z M105,135 L105,135 L195,135 A45,45 0 0,1 240,180 L240,180 A45,45 0 0,1 195,225 L195,225 L105,225 M105,135 A45,45 0 0,0 60,180 L60,180 A45,45 0 0,0 105,225 " style="stroke-width: 6; stroke-linecap: butt; stroke-linejoin: bevel; stroke: rgb(0, 0, 0); fill: none;"/></svg>